<mxfile host="65bd71144e">
    <diagram id="CoWCDYu3Gu0Qkiy8dsGE" name="Page-1">
        <mxGraphModel dx="9708" dy="4044" grid="1" gridSize="10" guides="1" tooltips="1" connect="1" arrows="1" fold="1" page="1" pageScale="1" pageWidth="850" pageHeight="1100" math="0" shadow="0">
            <root>
                <mxCell id="0"/>
                <mxCell id="1" parent="0"/>
                <mxCell id="3" value="&lt;pre style=&quot;background-color: #ffffff ; color: #080808 ; font-family: &amp;#34;fira code&amp;#34; , monospace ; font-size: 12.0pt&quot;&gt;&lt;span style=&quot;color: #336ecc&quot;&gt;AsyncProducer&lt;/span&gt;&lt;/pre&gt;" style="rounded=0;whiteSpace=wrap;html=1;" vertex="1" parent="1">
                    <mxGeometry x="-972.49" y="270" width="150" height="50" as="geometry"/>
                </mxCell>
                <mxCell id="4" value="&lt;pre style=&quot;background-color: #ffffff ; color: #080808 ; font-family: &amp;#34;fira code&amp;#34; , monospace ; font-size: 12.0pt&quot;&gt;&lt;span style=&quot;color: #286d73&quot;&gt;client.&lt;/span&gt;&lt;/pre&gt;&lt;pre style=&quot;background-color: #ffffff ; color: #080808 ; font-family: &amp;#34;fira code&amp;#34; , monospace ; font-size: 12.0pt&quot;&gt;&lt;span style=&quot;color: #286d73&quot;&gt;backgroundMetadataUpdater&lt;/span&gt;&lt;/pre&gt;" style="ellipse;whiteSpace=wrap;html=1;fontSize=14;" vertex="1" parent="1">
                    <mxGeometry x="-1332.49" y="270" width="300" height="120" as="geometry"/>
                </mxCell>
                <mxCell id="5" value="&lt;pre style=&quot;background-color: #ffffff ; color: #080808 ; font-family: &amp;#34;fira code&amp;#34; , monospace ; font-size: 12.0pt&quot;&gt;&lt;span style=&quot;color: #286d73&quot;&gt;dispatcher&lt;/span&gt;&lt;/pre&gt;" style="ellipse;whiteSpace=wrap;html=1;fontSize=14;" vertex="1" parent="1">
                    <mxGeometry x="-1062.49" y="440" width="120" height="80" as="geometry"/>
                </mxCell>
                <mxCell id="6" value="&lt;pre style=&quot;background-color: #ffffff ; color: #080808 ; font-family: &amp;#34;fira code&amp;#34; , monospace ; font-size: 12.0pt&quot;&gt;&lt;span style=&quot;color: #286d73&quot;&gt;retryHandler&lt;/span&gt;&lt;/pre&gt;" style="ellipse;whiteSpace=wrap;html=1;fontSize=14;" vertex="1" parent="1">
                    <mxGeometry x="-862.49" y="440" width="140" height="80" as="geometry"/>
                </mxCell>
                <mxCell id="7" value="" style="endArrow=classic;html=1;fontSize=14;entryX=0.5;entryY=0;entryDx=0;entryDy=0;exitX=0.5;exitY=1;exitDx=0;exitDy=0;" edge="1" parent="1" source="3" target="5">
                    <mxGeometry width="50" height="50" relative="1" as="geometry">
                        <mxPoint x="-1082.49" y="430" as="sourcePoint"/>
                        <mxPoint x="-1032.49" y="380" as="targetPoint"/>
                    </mxGeometry>
                </mxCell>
                <mxCell id="8" value="" style="endArrow=classic;html=1;fontSize=14;exitX=0.5;exitY=1;exitDx=0;exitDy=0;entryX=0.5;entryY=0;entryDx=0;entryDy=0;" edge="1" parent="1" source="3" target="6">
                    <mxGeometry width="50" height="50" relative="1" as="geometry">
                        <mxPoint x="-872.49" y="420" as="sourcePoint"/>
                        <mxPoint x="-822.49" y="370" as="targetPoint"/>
                    </mxGeometry>
                </mxCell>
                <mxCell id="9" value="&lt;pre style=&quot;background-color: #ffffff ; color: #080808 ; font-family: &amp;#34;fira code&amp;#34; , monospace ; font-size: 12.0pt&quot;&gt;&lt;span style=&quot;color: #286d73&quot;&gt;NewAsyncProducer&lt;/span&gt;&lt;/pre&gt;" style="rounded=1;whiteSpace=wrap;html=1;fontSize=14;" vertex="1" parent="1">
                    <mxGeometry x="-1102.49" y="80" width="190" height="70" as="geometry"/>
                </mxCell>
                <mxCell id="10" value="" style="endArrow=classic;html=1;fontSize=14;entryX=0.5;entryY=0;entryDx=0;entryDy=0;exitX=0.5;exitY=1;exitDx=0;exitDy=0;" edge="1" parent="1" source="9" target="4">
                    <mxGeometry width="50" height="50" relative="1" as="geometry">
                        <mxPoint x="-1072.49" y="230" as="sourcePoint"/>
                        <mxPoint x="-1022.49" y="180" as="targetPoint"/>
                    </mxGeometry>
                </mxCell>
                <mxCell id="11" value="" style="endArrow=classic;html=1;fontSize=14;exitX=0.5;exitY=1;exitDx=0;exitDy=0;entryX=0.5;entryY=0;entryDx=0;entryDy=0;" edge="1" parent="1" source="9" target="3">
                    <mxGeometry width="50" height="50" relative="1" as="geometry">
                        <mxPoint x="-902.49" y="200" as="sourcePoint"/>
                        <mxPoint x="-852.49" y="150" as="targetPoint"/>
                    </mxGeometry>
                </mxCell>
                <mxCell id="12" value="" style="curved=1;endArrow=classic;html=1;fontSize=14;entryX=0.735;entryY=0.063;entryDx=0;entryDy=0;entryPerimeter=0;exitX=0;exitY=0;exitDx=0;exitDy=0;" edge="1" parent="1" source="6" target="5">
                    <mxGeometry width="50" height="50" relative="1" as="geometry">
                        <mxPoint x="-912.49" y="440" as="sourcePoint"/>
                        <mxPoint x="-862.49" y="390" as="targetPoint"/>
                        <Array as="points">
                            <mxPoint x="-862.49" y="440"/>
                            <mxPoint x="-912.49" y="390"/>
                        </Array>
                    </mxGeometry>
                </mxCell>
                <mxCell id="13" value="&lt;pre style=&quot;background-color: #ffffff ; color: #080808 ; font-family: &amp;#34;fira code&amp;#34; , monospace ; font-size: 12.0pt&quot;&gt;&lt;span style=&quot;color: #36666b&quot;&gt;newTopicProducer&lt;/span&gt;&lt;/pre&gt;" style="rounded=1;whiteSpace=wrap;html=1;fontSize=14;" vertex="1" parent="1">
                    <mxGeometry x="-1132.49" y="570" width="170" height="40" as="geometry"/>
                </mxCell>
                <mxCell id="14" value="" style="endArrow=classic;html=1;fontSize=14;exitX=0.5;exitY=1;exitDx=0;exitDy=0;entryX=0.5;entryY=0;entryDx=0;entryDy=0;" edge="1" parent="1" source="5" target="13">
                    <mxGeometry width="50" height="50" relative="1" as="geometry">
                        <mxPoint x="-1212.49" y="550" as="sourcePoint"/>
                        <mxPoint x="-1162.49" y="500" as="targetPoint"/>
                    </mxGeometry>
                </mxCell>
                <mxCell id="15" value="&lt;pre style=&quot;background-color: #ffffff ; color: #080808 ; font-family: &amp;#34;fira code&amp;#34; , monospace ; font-size: 12.0pt&quot;&gt;&lt;span style=&quot;color: #286d73&quot;&gt;tp.&lt;/span&gt;&lt;/pre&gt;&lt;pre style=&quot;background-color: #ffffff ; color: #080808 ; font-family: &amp;#34;fira code&amp;#34; , monospace ; font-size: 12.0pt&quot;&gt;&lt;span style=&quot;color: #286d73&quot;&gt;dispatcher&lt;/span&gt;&lt;/pre&gt;" style="ellipse;whiteSpace=wrap;html=1;fontSize=14;" vertex="1" parent="1">
                    <mxGeometry x="-1107.49" y="670" width="120" height="80" as="geometry"/>
                </mxCell>
                <mxCell id="16" value="" style="endArrow=classic;html=1;fontSize=14;exitX=0.5;exitY=1;exitDx=0;exitDy=0;entryX=0.5;entryY=0;entryDx=0;entryDy=0;" edge="1" parent="1" source="13" target="15">
                    <mxGeometry width="50" height="50" relative="1" as="geometry">
                        <mxPoint x="-1292.49" y="750" as="sourcePoint"/>
                        <mxPoint x="-1242.49" y="700" as="targetPoint"/>
                    </mxGeometry>
                </mxCell>
                <mxCell id="17" value="&lt;pre style=&quot;background-color: #ffffff ; color: #080808 ; font-family: &amp;#34;fira code&amp;#34; , monospace ; font-size: 12.0pt&quot;&gt;&lt;pre style=&quot;font-family: &amp;#34;fira code&amp;#34; , monospace ; font-size: 12pt&quot;&gt;&lt;span style=&quot;color: #36666b&quot;&gt;newPartitionProducer&lt;/span&gt;&lt;/pre&gt;&lt;/pre&gt;" style="rounded=1;whiteSpace=wrap;html=1;fontSize=14;" vertex="1" parent="1">
                    <mxGeometry x="-1152.49" y="800" width="210" height="50" as="geometry"/>
                </mxCell>
                <mxCell id="18" value="&lt;pre style=&quot;background-color: #ffffff ; color: #080808 ; font-family: &amp;#34;fira code&amp;#34; , monospace ; font-size: 12.0pt&quot;&gt;&lt;span style=&quot;color: #286d73&quot;&gt;pp.&lt;/span&gt;&lt;/pre&gt;&lt;pre style=&quot;background-color: #ffffff ; color: #080808 ; font-family: &amp;#34;fira code&amp;#34; , monospace ; font-size: 12.0pt&quot;&gt;&lt;span style=&quot;color: #286d73&quot;&gt;dispatcher&lt;/span&gt;&lt;/pre&gt;" style="ellipse;whiteSpace=wrap;html=1;fontSize=14;" vertex="1" parent="1">
                    <mxGeometry x="-1107.49" y="900" width="120" height="80" as="geometry"/>
                </mxCell>
                <mxCell id="19" value="" style="endArrow=classic;html=1;fontSize=14;exitX=0.5;exitY=1;exitDx=0;exitDy=0;entryX=0.5;entryY=0;entryDx=0;entryDy=0;" edge="1" parent="1" source="15" target="17">
                    <mxGeometry width="50" height="50" relative="1" as="geometry">
                        <mxPoint x="-1242.49" y="770" as="sourcePoint"/>
                        <mxPoint x="-1192.49" y="720" as="targetPoint"/>
                    </mxGeometry>
                </mxCell>
                <mxCell id="20" value="" style="endArrow=classic;html=1;fontSize=14;exitX=0.5;exitY=1;exitDx=0;exitDy=0;entryX=0.5;entryY=0;entryDx=0;entryDy=0;" edge="1" parent="1" source="17" target="18">
                    <mxGeometry width="50" height="50" relative="1" as="geometry">
                        <mxPoint x="-1262.49" y="950" as="sourcePoint"/>
                        <mxPoint x="-1212.49" y="900" as="targetPoint"/>
                    </mxGeometry>
                </mxCell>
                <mxCell id="21" value="" style="endArrow=classic;html=1;fontSize=14;exitX=0.5;exitY=1;exitDx=0;exitDy=0;entryX=0.5;entryY=0;entryDx=0;entryDy=0;" edge="1" parent="1" source="18" target="22">
                    <mxGeometry width="50" height="50" relative="1" as="geometry">
                        <mxPoint x="-1192.49" y="980" as="sourcePoint"/>
                        <mxPoint x="-1044.99" y="1030" as="targetPoint"/>
                    </mxGeometry>
                </mxCell>
                <mxCell id="22" value="&lt;pre style=&quot;background-color: #ffffff ; color: #080808 ; font-family: &amp;#34;fira code&amp;#34; , monospace ; font-size: 12.0pt&quot;&gt;&lt;span style=&quot;color: #36666b&quot;&gt;Leader&lt;/span&gt;(&lt;span style=&quot;color: #008a91&quot;&gt;pp&lt;/span&gt;.&lt;span style=&quot;color: #000000&quot;&gt;topic&lt;/span&gt;, &lt;span style=&quot;color: #008a91&quot;&gt;pp&lt;/span&gt;.&lt;span style=&quot;color: #000000&quot;&gt;partition&lt;/span&gt;)&lt;/pre&gt;" style="rounded=1;whiteSpace=wrap;html=1;fontSize=14;" vertex="1" parent="1">
                    <mxGeometry x="-1552.49" y="1040" width="300" height="40" as="geometry"/>
                </mxCell>
                <mxCell id="23" value="" style="endArrow=none;dashed=1;html=1;dashPattern=1 3;strokeWidth=2;fontSize=14;exitX=0.5;exitY=0;exitDx=0;exitDy=0;entryX=0.5;entryY=1;entryDx=0;entryDy=0;" edge="1" parent="1" source="22" target="4">
                    <mxGeometry width="50" height="50" relative="1" as="geometry">
                        <mxPoint x="-1322.49" y="990" as="sourcePoint"/>
                        <mxPoint x="-1272.49" y="940" as="targetPoint"/>
                    </mxGeometry>
                </mxCell>
                <mxCell id="24" value="&lt;pre style=&quot;background-color: #ffffff ; color: #080808 ; font-family: &amp;#34;fira code&amp;#34; , monospace ; font-size: 12.0pt&quot;&gt;&lt;pre style=&quot;font-family: &amp;#34;fira code&amp;#34; , monospace ; font-size: 12pt&quot;&gt;&lt;pre style=&quot;font-family: &amp;#34;fira code&amp;#34; , monospace ; font-size: 12pt&quot;&gt;&lt;span style=&quot;color: #286d73&quot;&gt;newBrokerProducer&lt;/span&gt;&lt;/pre&gt;&lt;/pre&gt;&lt;/pre&gt;" style="rounded=1;whiteSpace=wrap;html=1;fontSize=14;" vertex="1" parent="1">
                    <mxGeometry x="-1182.49" y="1080" width="210" height="50" as="geometry"/>
                </mxCell>
                <mxCell id="25" value="&lt;pre style=&quot;background-color: #ffffff ; color: #080808 ; font-family: &amp;#34;fira code&amp;#34; , monospace ; font-size: 12.0pt&quot;&gt;&lt;span style=&quot;color: #000000&quot;&gt;bp&lt;/span&gt;.&lt;span style=&quot;color: #286d73&quot;&gt;run&lt;/span&gt;&lt;/pre&gt;" style="ellipse;whiteSpace=wrap;html=1;fontSize=14;" vertex="1" parent="1">
                    <mxGeometry x="-1042.49" y="1180" width="115" height="60" as="geometry"/>
                </mxCell>
                <mxCell id="26" value="" style="endArrow=classic;html=1;fontSize=14;exitX=0.5;exitY=1;exitDx=0;exitDy=0;entryX=0.5;entryY=0;entryDx=0;entryDy=0;" edge="1" parent="1" source="18" target="24">
                    <mxGeometry width="50" height="50" relative="1" as="geometry">
                        <mxPoint x="-942.49" y="1040" as="sourcePoint"/>
                        <mxPoint x="-892.49" y="990" as="targetPoint"/>
                    </mxGeometry>
                </mxCell>
                <mxCell id="27" value="" style="endArrow=classic;html=1;fontSize=14;exitX=0.5;exitY=1;exitDx=0;exitDy=0;entryX=0.5;entryY=0;entryDx=0;entryDy=0;" edge="1" parent="1" source="24" target="25">
                    <mxGeometry width="50" height="50" relative="1" as="geometry">
                        <mxPoint x="-1072.49" y="1200" as="sourcePoint"/>
                        <mxPoint x="-1022.49" y="1150" as="targetPoint"/>
                    </mxGeometry>
                </mxCell>
                <mxCell id="28" value="&lt;pre style=&quot;background-color: rgb(255 , 255 , 255) ; font-family: &amp;#34;fira code&amp;#34; , monospace ; font-size: 12pt&quot;&gt;range output&lt;/pre&gt;" style="ellipse;whiteSpace=wrap;html=1;fontSize=14;" vertex="1" parent="1">
                    <mxGeometry x="-1541.25" y="1180" width="132.5" height="60" as="geometry"/>
                </mxCell>
                <mxCell id="29" value="" style="endArrow=classic;html=1;fontSize=14;exitX=0.5;exitY=1;exitDx=0;exitDy=0;entryX=0.5;entryY=0;entryDx=0;entryDy=0;" edge="1" parent="1" source="24" target="28">
                    <mxGeometry width="50" height="50" relative="1" as="geometry">
                        <mxPoint x="-882.49" y="1170" as="sourcePoint"/>
                        <mxPoint x="-832.49" y="1120" as="targetPoint"/>
                    </mxGeometry>
                </mxCell>
                <mxCell id="30" value="&lt;pre style=&quot;background-color: #ffffff ; color: #080808 ; font-family: &amp;#34;fira code&amp;#34; , monospace ; font-size: 12.0pt&quot;&gt;&lt;pre style=&quot;font-family: &amp;#34;fira code&amp;#34; , monospace ; font-size: 12pt&quot;&gt;&lt;pre style=&quot;font-family: &amp;#34;fira code&amp;#34; , monospace ; font-size: 12pt&quot;&gt;&lt;pre style=&quot;font-family: &amp;#34;fira code&amp;#34; , monospace ; font-size: 12pt&quot;&gt;&lt;span style=&quot;color: #36666b&quot;&gt;buildRequest&lt;/span&gt;&lt;/pre&gt;&lt;/pre&gt;&lt;/pre&gt;&lt;/pre&gt;" style="rounded=1;whiteSpace=wrap;html=1;fontSize=14;" vertex="1" parent="1">
                    <mxGeometry x="-1545.62" y="1330" width="140" height="50" as="geometry"/>
                </mxCell>
                <mxCell id="31" value="&lt;pre style=&quot;background-color: #ffffff ; color: #080808 ; font-family: &amp;#34;fira code&amp;#34; , monospace ; font-size: 12.0pt&quot;&gt;&lt;pre style=&quot;font-family: &amp;#34;fira code&amp;#34; , monospace ; font-size: 12pt&quot;&gt;&lt;pre style=&quot;font-family: &amp;#34;fira code&amp;#34; , monospace ; font-size: 12pt&quot;&gt;&lt;pre style=&quot;font-family: &amp;#34;fira code&amp;#34; , monospace ; font-size: 12pt&quot;&gt;&lt;pre style=&quot;font-family: &amp;#34;fira code&amp;#34; , monospace ; font-size: 12pt&quot;&gt;&lt;span style=&quot;color: #36666b&quot;&gt;Produce&lt;/span&gt;&lt;/pre&gt;&lt;/pre&gt;&lt;/pre&gt;&lt;/pre&gt;&lt;/pre&gt;" style="rounded=1;whiteSpace=wrap;html=1;fontSize=14;" vertex="1" parent="1">
                    <mxGeometry x="-1530" y="1460" width="110" height="50" as="geometry"/>
                </mxCell>
                <mxCell id="32" value="" style="endArrow=classic;html=1;fontSize=14;exitX=0.5;exitY=1;exitDx=0;exitDy=0;entryX=0.5;entryY=0;entryDx=0;entryDy=0;" edge="1" parent="1" source="30" target="31">
                    <mxGeometry width="50" height="50" relative="1" as="geometry">
                        <mxPoint x="-1528.75" y="1480" as="sourcePoint"/>
                        <mxPoint x="-1478.75" y="1430" as="targetPoint"/>
                    </mxGeometry>
                </mxCell>
                <mxCell id="33" value="" style="endArrow=classic;html=1;fontSize=14;exitX=0.5;exitY=1;exitDx=0;exitDy=0;entryX=0.5;entryY=0;entryDx=0;entryDy=0;" edge="1" parent="1" source="28" target="30">
                    <mxGeometry width="50" height="50" relative="1" as="geometry">
                        <mxPoint x="-1488.75" y="1370" as="sourcePoint"/>
                        <mxPoint x="-1438.75" y="1320" as="targetPoint"/>
                    </mxGeometry>
                </mxCell>
                <mxCell id="34" value="" style="curved=1;endArrow=classic;html=1;fontSize=14;exitX=1;exitY=0;exitDx=0;exitDy=0;entryX=0.5;entryY=1;entryDx=0;entryDy=0;" edge="1" parent="1" source="25" target="6">
                    <mxGeometry width="50" height="50" relative="1" as="geometry">
                        <mxPoint x="-842.49" y="1100" as="sourcePoint"/>
                        <mxPoint x="-792.49" y="1050" as="targetPoint"/>
                        <Array as="points">
                            <mxPoint x="-792.49" y="1100"/>
                            <mxPoint x="-842.49" y="1050"/>
                        </Array>
                    </mxGeometry>
                </mxCell>
                <mxCell id="35" value="&lt;pre style=&quot;background-color: #ffffff ; color: #080808 ; font-family: &amp;#34;fira code&amp;#34; , monospace ; font-size: 12.0pt&quot;&gt;&lt;pre style=&quot;font-family: &amp;#34;fira code&amp;#34; , monospace ; font-size: 12pt&quot;&gt;&lt;pre style=&quot;font-family: &amp;#34;fira code&amp;#34; , monospace ; font-size: 12pt&quot;&gt;&lt;pre style=&quot;font-family: &amp;#34;fira code&amp;#34; , monospace ; font-size: 12pt&quot;&gt;&lt;span style=&quot;color: #286d73&quot;&gt;handleSuccess&lt;/span&gt;&lt;/pre&gt;&lt;/pre&gt;&lt;/pre&gt;&lt;/pre&gt;" style="rounded=1;whiteSpace=wrap;html=1;fontSize=14;" vertex="1" parent="1">
                    <mxGeometry x="-972.49" y="1900" width="145" height="50" as="geometry"/>
                </mxCell>
                <mxCell id="36" value="" style="curved=1;endArrow=classic;html=1;fontSize=14;exitX=0.5;exitY=0;exitDx=0;exitDy=0;entryX=0.5;entryY=1;entryDx=0;entryDy=0;" edge="1" parent="1" source="35" target="6">
                    <mxGeometry width="50" height="50" relative="1" as="geometry">
                        <mxPoint x="-892.49" y="1280" as="sourcePoint"/>
                        <mxPoint x="-842.49" y="1230" as="targetPoint"/>
                        <Array as="points">
                            <mxPoint x="-712.49" y="1380"/>
                            <mxPoint x="-732.49" y="1300"/>
                            <mxPoint x="-842.49" y="1280"/>
                            <mxPoint x="-752.49" y="1260"/>
                            <mxPoint x="-672.49" y="1260"/>
                            <mxPoint x="-892.49" y="1230"/>
                            <mxPoint x="-642.49" y="1180"/>
                        </Array>
                    </mxGeometry>
                </mxCell>
                <mxCell id="37" value="&lt;pre style=&quot;background-color: #ffffff ; color: #080808 ; font-family: &amp;#34;fira code&amp;#34; , monospace ; font-size: 12.0pt&quot;&gt;&lt;pre style=&quot;font-family: &amp;#34;fira code&amp;#34; , monospace ; font-size: 12pt&quot;&gt;&lt;pre style=&quot;font-family: &amp;#34;fira code&amp;#34; , monospace ; font-size: 12pt&quot;&gt;&lt;pre style=&quot;font-family: &amp;#34;fira code&amp;#34; , monospace ; font-size: 12pt&quot;&gt;&lt;pre style=&quot;font-family: &amp;#34;fira code&amp;#34; , monospace ; font-size: 12pt&quot;&gt;&lt;span style=&quot;color: #286d73&quot;&gt;handleResponse&lt;/span&gt;&lt;/pre&gt;&lt;/pre&gt;&lt;/pre&gt;&lt;/pre&gt;&lt;/pre&gt;" style="rounded=1;whiteSpace=wrap;html=1;fontSize=14;" vertex="1" parent="1">
                    <mxGeometry x="-1132.49" y="1760" width="145" height="50" as="geometry"/>
                </mxCell>
                <mxCell id="38" value="" style="endArrow=classic;html=1;fontSize=14;entryX=0.5;entryY=0;entryDx=0;entryDy=0;exitX=0.5;exitY=1;exitDx=0;exitDy=0;" edge="1" parent="1" source="37" target="35">
                    <mxGeometry width="50" height="50" relative="1" as="geometry">
                        <mxPoint x="-832.49" y="1280" as="sourcePoint"/>
                        <mxPoint x="-782.49" y="1230" as="targetPoint"/>
                    </mxGeometry>
                </mxCell>
                <mxCell id="39" value="" style="endArrow=classic;html=1;fontSize=14;exitX=0.5;exitY=1;exitDx=0;exitDy=0;entryX=0.5;entryY=0;entryDx=0;entryDy=0;" edge="1" parent="1" source="37" target="55">
                    <mxGeometry width="50" height="50" relative="1" as="geometry">
                        <mxPoint x="-712.49" y="1290" as="sourcePoint"/>
                        <mxPoint x="-612.49" y="1900" as="targetPoint"/>
                    </mxGeometry>
                </mxCell>
                <mxCell id="40" value="" style="endArrow=classic;html=1;fontSize=14;exitX=0.5;exitY=1;exitDx=0;exitDy=0;entryX=0.5;entryY=0;entryDx=0;entryDy=0;" edge="1" parent="1" source="25" target="37">
                    <mxGeometry width="50" height="50" relative="1" as="geometry">
                        <mxPoint x="-982.49" y="1350" as="sourcePoint"/>
                        <mxPoint x="-932.49" y="1300" as="targetPoint"/>
                    </mxGeometry>
                </mxCell>
                <mxCell id="41" value="&lt;pre style=&quot;background-color: #ffffff ; color: #080808 ; font-family: &amp;#34;fira code&amp;#34; , monospace ; font-size: 12.0pt&quot;&gt;&lt;span style=&quot;color: #286d73&quot;&gt;shutdown&lt;/span&gt;&lt;/pre&gt;" style="rounded=1;whiteSpace=wrap;html=1;fontSize=14;" vertex="1" parent="1">
                    <mxGeometry x="-1222.49" y="1600" width="120" height="60" as="geometry"/>
                </mxCell>
                <mxCell id="42" value="" style="endArrow=classic;html=1;fontSize=14;entryX=0.5;entryY=0;entryDx=0;entryDy=0;exitX=0.5;exitY=1;exitDx=0;exitDy=0;" edge="1" parent="1" source="25" target="41">
                    <mxGeometry width="50" height="50" relative="1" as="geometry">
                        <mxPoint x="-1002.49" y="1420" as="sourcePoint"/>
                        <mxPoint x="-952.49" y="1370" as="targetPoint"/>
                    </mxGeometry>
                </mxCell>
                <mxCell id="43" value="&lt;pre style=&quot;background-color: #ffffff ; color: #080808 ; font-family: &amp;#34;fira code&amp;#34; , monospace ; font-size: 12.0pt&quot;&gt;&lt;pre style=&quot;font-family: &amp;#34;fira code&amp;#34; , monospace ; font-size: 12pt&quot;&gt;&lt;span style=&quot;color: #286d73&quot;&gt;waitForSpace&lt;/span&gt;&lt;/pre&gt;&lt;/pre&gt;" style="rounded=1;whiteSpace=wrap;html=1;fontSize=14;" vertex="1" parent="1">
                    <mxGeometry x="-987.49" y="1600" width="135" height="60" as="geometry"/>
                </mxCell>
                <mxCell id="44" value="" style="endArrow=classic;html=1;fontSize=14;exitX=0.5;exitY=1;exitDx=0;exitDy=0;entryX=0.5;entryY=0;entryDx=0;entryDy=0;" edge="1" parent="1" source="25" target="43">
                    <mxGeometry width="50" height="50" relative="1" as="geometry">
                        <mxPoint x="-952.49" y="1420" as="sourcePoint"/>
                        <mxPoint x="-902.49" y="1370" as="targetPoint"/>
                    </mxGeometry>
                </mxCell>
                <mxCell id="45" value="" style="endArrow=classic;html=1;fontSize=14;entryX=0.5;entryY=0;entryDx=0;entryDy=0;exitX=0.5;exitY=1;exitDx=0;exitDy=0;" edge="1" parent="1" source="43" target="37">
                    <mxGeometry width="50" height="50" relative="1" as="geometry">
                        <mxPoint x="-842.49" y="1670" as="sourcePoint"/>
                        <mxPoint x="-792.49" y="1620" as="targetPoint"/>
                    </mxGeometry>
                </mxCell>
                <mxCell id="46" value="" style="endArrow=classic;html=1;fontSize=14;entryX=0.5;entryY=0;entryDx=0;entryDy=0;exitX=0.5;exitY=1;exitDx=0;exitDy=0;" edge="1" parent="1" source="41" target="37">
                    <mxGeometry width="50" height="50" relative="1" as="geometry">
                        <mxPoint x="-1192.49" y="1750" as="sourcePoint"/>
                        <mxPoint x="-1142.49" y="1700" as="targetPoint"/>
                    </mxGeometry>
                </mxCell>
                <mxCell id="47" value="&lt;pre style=&quot;background-color: #ffffff ; color: #080808 ; font-family: &amp;#34;fira code&amp;#34; , monospace ; font-size: 12.0pt&quot;&gt;&lt;pre style=&quot;font-family: &amp;#34;fira code&amp;#34; , monospace ; font-size: 12pt&quot;&gt;&lt;pre style=&quot;font-family: &amp;#34;fira code&amp;#34; , monospace ; font-size: 12pt&quot;&gt;&lt;pre style=&quot;font-family: &amp;#34;fira code&amp;#34; , monospace ; font-size: 12pt&quot;&gt;&lt;pre style=&quot;font-family: &amp;#34;fira code&amp;#34; , monospace ; font-size: 12pt&quot;&gt;&lt;pre style=&quot;font-family: &amp;#34;fira code&amp;#34; , monospace ; font-size: 12pt&quot;&gt;&lt;span style=&quot;color: #286d73&quot;&gt;sendAndReceive&lt;/span&gt;&lt;/pre&gt;&lt;/pre&gt;&lt;/pre&gt;&lt;/pre&gt;&lt;/pre&gt;&lt;/pre&gt;" style="rounded=1;whiteSpace=wrap;html=1;fontSize=14;" vertex="1" parent="1">
                    <mxGeometry x="-1560" y="1580" width="170" height="50" as="geometry"/>
                </mxCell>
                <mxCell id="48" value="" style="endArrow=classic;html=1;exitX=0.5;exitY=1;exitDx=0;exitDy=0;entryX=0.5;entryY=0;entryDx=0;entryDy=0;" edge="1" parent="1" source="31" target="47">
                    <mxGeometry width="50" height="50" relative="1" as="geometry">
                        <mxPoint x="-1692.49" y="1580" as="sourcePoint"/>
                        <mxPoint x="-1642.49" y="1530" as="targetPoint"/>
                    </mxGeometry>
                </mxCell>
                <mxCell id="49" value="&lt;pre style=&quot;background-color: #ffffff ; color: #080808 ; font-family: &amp;#34;fira code&amp;#34; , monospace ; font-size: 12.0pt&quot;&gt;&lt;pre style=&quot;font-family: &amp;#34;fira code&amp;#34; , monospace ; font-size: 12pt&quot;&gt;&lt;pre style=&quot;font-family: &amp;#34;fira code&amp;#34; , monospace ; font-size: 12pt&quot;&gt;&lt;pre style=&quot;font-family: &amp;#34;fira code&amp;#34; , monospace ; font-size: 12pt&quot;&gt;&lt;pre style=&quot;font-family: &amp;#34;fira code&amp;#34; , monospace ; font-size: 12pt&quot;&gt;&lt;pre style=&quot;font-family: &amp;#34;fira code&amp;#34; , monospace ; font-size: 12pt&quot;&gt;&lt;span style=&quot;color: #286d73&quot;&gt;send&lt;/span&gt;&lt;/pre&gt;&lt;/pre&gt;&lt;/pre&gt;&lt;/pre&gt;&lt;/pre&gt;&lt;/pre&gt;" style="rounded=1;whiteSpace=wrap;html=1;fontSize=14;" vertex="1" parent="1">
                    <mxGeometry x="-1519.69" y="1690" width="88.13" height="50" as="geometry"/>
                </mxCell>
                <mxCell id="50" value="" style="endArrow=classic;html=1;exitX=0.5;exitY=1;exitDx=0;exitDy=0;entryX=0.5;entryY=0;entryDx=0;entryDy=0;" edge="1" parent="1" source="47" target="49">
                    <mxGeometry width="50" height="50" relative="1" as="geometry">
                        <mxPoint x="-1602.49" y="1690" as="sourcePoint"/>
                        <mxPoint x="-1552.49" y="1640" as="targetPoint"/>
                    </mxGeometry>
                </mxCell>
                <mxCell id="51" value="&lt;pre style=&quot;background-color: #ffffff ; color: #080808 ; font-family: &amp;#34;fira code&amp;#34; , monospace ; font-size: 12.0pt&quot;&gt;&lt;pre style=&quot;font-family: &amp;#34;fira code&amp;#34; , monospace ; font-size: 12pt&quot;&gt;&lt;pre style=&quot;font-family: &amp;#34;fira code&amp;#34; , monospace ; font-size: 12pt&quot;&gt;&lt;pre style=&quot;font-family: &amp;#34;fira code&amp;#34; , monospace ; font-size: 12pt&quot;&gt;&lt;pre style=&quot;font-family: &amp;#34;fira code&amp;#34; , monospace ; font-size: 12pt&quot;&gt;&lt;pre style=&quot;font-family: &amp;#34;fira code&amp;#34; , monospace ; font-size: 12pt&quot;&gt;&lt;span style=&quot;color: #286d73&quot;&gt;write&lt;/span&gt;&lt;/pre&gt;&lt;/pre&gt;&lt;/pre&gt;&lt;/pre&gt;&lt;/pre&gt;&lt;/pre&gt;" style="rounded=1;whiteSpace=wrap;html=1;fontSize=14;" vertex="1" parent="1">
                    <mxGeometry x="-1519.69" y="1780" width="88.13" height="50" as="geometry"/>
                </mxCell>
                <mxCell id="52" value="" style="endArrow=classic;html=1;exitX=0.5;exitY=1;exitDx=0;exitDy=0;" edge="1" parent="1" source="49" target="51">
                    <mxGeometry width="50" height="50" relative="1" as="geometry">
                        <mxPoint x="-1592.49" y="1800" as="sourcePoint"/>
                        <mxPoint x="-1542.49" y="1750" as="targetPoint"/>
                    </mxGeometry>
                </mxCell>
                <mxCell id="53" value="" style="curved=1;endArrow=classic;html=1;exitX=0;exitY=1;exitDx=0;exitDy=0;entryX=1;entryY=1;entryDx=0;entryDy=0;" edge="1" parent="1" source="25" target="28">
                    <mxGeometry width="50" height="50" relative="1" as="geometry">
                        <mxPoint x="-1252.49" y="1290" as="sourcePoint"/>
                        <mxPoint x="-1202.49" y="1240" as="targetPoint"/>
                        <Array as="points">
                            <mxPoint x="-1202.49" y="1290"/>
                            <mxPoint x="-1252.49" y="1240"/>
                        </Array>
                    </mxGeometry>
                </mxCell>
                <mxCell id="54" value="" style="curved=1;endArrow=classic;html=1;exitX=1;exitY=1;exitDx=0;exitDy=0;entryX=0;entryY=0.25;entryDx=0;entryDy=0;" edge="1" parent="1" source="31" target="37">
                    <mxGeometry width="50" height="50" relative="1" as="geometry">
                        <mxPoint x="-1322.49" y="1630" as="sourcePoint"/>
                        <mxPoint x="-1272.49" y="1580" as="targetPoint"/>
                        <Array as="points">
                            <mxPoint x="-1272.49" y="1630"/>
                            <mxPoint x="-1322.49" y="1580"/>
                        </Array>
                    </mxGeometry>
                </mxCell>
                <mxCell id="55" value="&lt;pre style=&quot;background-color: #ffffff ; color: #080808 ; font-family: &amp;quot;fira code&amp;quot; , monospace ; font-size: 12.0pt&quot;&gt;&lt;pre style=&quot;font-family: &amp;quot;fira code&amp;quot; , monospace ; font-size: 12pt&quot;&gt;&lt;pre style=&quot;font-family: &amp;quot;fira code&amp;quot; , monospace ; font-size: 12pt&quot;&gt;&lt;pre style=&quot;font-family: &amp;quot;fira code&amp;quot; , monospace ; font-size: 12pt&quot;&gt;&lt;span style=&quot;color: #286d73&quot;&gt;handleError&lt;/span&gt;&lt;/pre&gt;&lt;/pre&gt;&lt;/pre&gt;&lt;/pre&gt;" style="rounded=1;whiteSpace=wrap;html=1;fontSize=14;" vertex="1" parent="1">
                    <mxGeometry x="-690" y="1900" width="145" height="50" as="geometry"/>
                </mxCell>
            </root>
        </mxGraphModel>
    </diagram>
</mxfile>